# xmcd
#
# Track frame offsets:
#	150
#	15307
#	28772
#	40031
#	52077
#	60929
#	89232
#	107846
#	122050
#	137254
#	156108
#	172704
#	183074
#	200419
#	216552
#
# Disc length: 3180 seconds
#
# Revision: 2
# Processed by: cddbd v1.5.2PL0 Copyright (c) Steve Scherf et al.
# Submitted via: EZCDAudioConverter 2.1.7.1
#
DISCID=c30c6a0f
DTITLE=V/A - Panic
DYEAR=2011
DGENRE=MOJO
TTITLE0=Madness - Blue Skinned Beast
TTITLE1=Robert Wyatt - Shipbuilding
TTITLE2=Billy Bragg - Which Side Are You On?
TTITLE3=The Three Johns - The World Of The Workers Is Wild
TTITLE4=Girls At Our Best! - Getting Nowhere Fast
TTITLE5=Half Man Half Biscuit - National Shite Day
TTITLE6=Wah!/Pete Wylie - The Day That Margaret Thatcher Dies (A Party Song)
TTITLE7=Orange Juice - Lean Period
TTITLE8=The Nightingales - First My Job
TTITLE9=Television Personalities - Paradise Estate
TTITLE10=Felt - Grey Streets
TTITLE11=Mekons - Abernant 1984/5
TTITLE12=Redskins - Lev Bronstein
TTITLE13=McCarthy - Red Sleeping Beauty
TTITLE14=The Band Of Holy Joy - Who Snatched The Baby?
EXTD=
EXTT0=
EXTT1=
EXTT2=
EXTT3=
EXTT4=
EXTT5=
EXTT6=
EXTT7=
EXTT8=
EXTT9=
EXTT10=
EXTT11=
EXTT12=
EXTT13=
EXTT14=
PLAYORDER=
